<?xml version="1.0" encoding="UTF-8" standalone="no"?>
<svg width="1440px" height="763px" viewBox="0 0 1440 763" version="1.1" xmlns="http://www.w3.org/2000/svg" xmlns:xlink="http://www.w3.org/1999/xlink">
    <!-- Generator: Sketch 48.1 (47250) - http://www.bohemiancoding.com/sketch -->
    <title>Group 55</title>
    <desc>Created with Sketch.</desc>
    <defs>
        <linearGradient x1="33.2357128%" y1="36.0022465%" x2="41.5222867%" y2="66.0205137%" id="linearGradient-1">
            <stop stop-color="#2C488B" offset="0%"></stop>
            <stop stop-color="#1E3A7A" offset="100%"></stop>
        </linearGradient>
        <linearGradient x1="40.8183598%" y1="28.0177256%" x2="57.3682407%" y2="104.123263%" id="linearGradient-2">
            <stop stop-color="#6293FC" offset="0%"></stop>
            <stop stop-color="#407CFF" offset="100%"></stop>
        </linearGradient>
    </defs>
    <g id="Landing-Page-OpenBeta-1440" stroke="none" stroke-width="1" fill="none" fill-rule="evenodd" transform="translate(0.000000, -257.000000)" opacity="0.9">
        <g id="Group-14">
            <g id="Group-55" transform="translate(0.000000, 257.000000)">
                <path d="M0,331.414458 C172.859025,357.909006 335.148075,361.947515 486.867147,343.529985 C809.200135,304.401236 980.177125,147.813402 1113.52013,93.6429202 C1194.38013,60.7936147 1303.20675,47.806341 1440,54.6810992 L1440,762.100513 L0,762.100513 L0,331.414458 Z" id="Path-15" fill="url(#linearGradient-1)"></path>
                <path d="M0,425.623509 C402.489045,407.838774 690.108762,329.359868 862.859152,190.186792 C1035.60954,51.0137155 1227.98982,-11.5453674 1440,2.50954303 L1440,761.98627 L0,761.98627 L0,425.623509 Z" id="Path-15" fill="url(#linearGradient-2)"></path>
            </g>
        </g>
    </g>
</svg>